# xmcd
#
# Track frame offsets:
#	150
#	19295
#	27072
#	47177
#	62650
#	78997
#	97727
#	114555
#	136230
#	152800
#	165700
#	180620
#
# Disc length: 2607 seconds
#
# Revision: 0
# Processed by: cddbd v1.4PL0 Copyright (c) Steve Scherf et al.
# Submitted via: audiograbber 1.81.01
#
DISCID=900a2d0c
DTITLE=Fanco Califano - I Grandi Successi Originali cd2
DYEAR=1900
DGENRE=pop
TTITLE0=Tac 
TTITLE1=Moriremo 'nsieme
TTITLE2=Ti perdo
TTITLE3=Il campione
TTITLE4=Amore dolce miele
TTITLE5=La seconda
TTITLE6=Ma che ci ho
TTITLE7=Nun ne porta' a casa
TTITLE8=Sto con lei
TTITLE9=Io non piango
TTITLE10=Una favola d'estate
TTITLE11=Avventura con un travestito
EXTD=
EXTT0=
EXTT1=
EXTT2=
EXTT3=
EXTT4=
EXTT5=
EXTT6=
EXTT7=
EXTT8=
EXTT9=
EXTT10=
EXTT11=
PLAYORDER=
